<svg xmlns="http://www.w3.org/2000/svg" version="1.1" xmlns:xlink="http://www.w3.org/1999/xlink" xmlns:svgjs="http://svgjs.dev/svgjs" width="1000" height="1000" viewBox="0 0 1000 1000"><rect width="1000" height="1000" fill="#ffbe79"></rect><g transform="matrix(0.7,0,0,0.7,149.5757775601088,390.41256176566765)"><svg viewBox="0 0 396 124" data-background-color="#ffbe79" preserveAspectRatio="xMidYMid meet" height="313" width="1000" xmlns="http://www.w3.org/2000/svg" xmlns:xlink="http://www.w3.org/1999/xlink"><g id="tight-bounds" transform="matrix(1,0,0,1,0.23998876053843787,0.02118822938024323)"><svg viewBox="0 0 395.52 123.95762354123951" height="123.95762354123951" width="395.52"><g><svg viewBox="0 0 655.0984946313222 205.31061028504791" height="123.95762354123951" width="395.52"><g><rect width="7.240576993759513" height="205.31061028504791" x="233.38352760154302" y="0" fill="#374151" opacity="1" stroke-width="0" stroke="transparent" fill-opacity="1" class="rect-o-0" data-fill-palette-color="primary" rx="1%" id="o-0" data-palette-color="#374151"></rect></g><g transform="matrix(1,0,0,1,259.5784946313222,0.5107229111568188)"><svg viewBox="0 0 395.52 204.28916446273428" height="204.28916446273428" width="395.52"><g id="textblocktransform"><svg viewBox="0 0 395.52 204.28916446273428" height="204.28916446273428" width="395.52" id="textblock"><g><svg viewBox="0 0 395.52 171.69142589557478" height="171.69142589557478" width="395.52"><g transform="matrix(1,0,0,1,0,0)"><svg width="395.52" viewBox="1.5500011444091797 -33.70000076293945 214.1499786376953 80.55000305175781" height="171.69142589557478" data-palette-color="#374151"><svg></svg><svg></svg><g class="wordmark-text-0" data-fill-palette-color="primary" id="text-0"><path xmlns="http://www.w3.org/2000/svg" d="M11.65-14.25l-0.55 1.7h10.8l-0.55-1.7c-1.267-3.933-2.3-7.193-3.1-9.78-0.8-2.58-1.283-4.187-1.45-4.82v0l-0.25-0.95c-0.367 1.567-2 6.75-4.9 15.55zM31.45 0h-5.5l-2.65-8.25h-13.6l-2.7 8.25h-5.45l11.65-33.7h6.75zM36.45-25.35h4.9v4.45c1.233-3.133 3.45-4.7 6.65-4.7v0c0.467 0 0.983 0.05 1.55 0.15v0 4.8c-0.7-0.3-1.483-0.45-2.35-0.45v0c-1.7 0-3.1 0.75-4.2 2.25-1.1 1.5-1.65 3.283-1.65 5.35v0 13.5h-4.9zM63.4-4.9v0c1.733 0 3.243-0.677 4.53-2.03 1.28-1.347 1.92-3.237 1.92-5.67v0c0-3-0.607-5.217-1.82-6.65-1.22-1.433-2.697-2.15-4.43-2.15v0c-1.967 0-3.517 0.777-4.65 2.33-1.133 1.547-1.7 3.587-1.7 6.12v0c0 2.633 0.61 4.633 1.83 6 1.213 1.367 2.653 2.05 4.32 2.05zM69.85-21.4v-3.95h4.9v23.2c0 3.9-1.107 6.843-3.32 8.83-2.22 1.98-5.063 2.97-8.53 2.97v0c-3.267 0-6.017-0.55-8.25-1.65v0-4.95c2.133 1.4 4.717 2.1 7.75 2.1v0c4.967 0 7.45-2.45 7.45-7.35v0-2.6c-1.633 2.733-4.083 4.1-7.35 4.1v0c-2.867 0-5.317-1.06-7.35-3.18-2.033-2.113-3.05-5.103-3.05-8.97v0c0-3.733 0.95-6.81 2.85-9.23 1.9-2.413 4.417-3.62 7.55-3.62v0c3.367 0 5.817 1.433 7.35 4.3zM84.85-14.5h12.25v-0.9c-0.067-1.9-0.583-3.41-1.55-4.53-0.967-1.113-2.35-1.67-4.15-1.67v0c-1.667 0-3.1 0.607-4.3 1.82-1.2 1.22-1.95 2.98-2.25 5.28zM100.25-5.75v0 4.4c-1.867 1.067-4.333 1.6-7.4 1.6v0c-3.933 0-7.067-1.183-9.4-3.55-2.333-2.367-3.5-5.467-3.5-9.3v0c0-4.067 1.067-7.26 3.2-9.58 2.133-2.313 4.85-3.47 8.15-3.47v0c3.233 0 5.8 1.007 7.7 3.02 1.9 2.02 2.85 4.93 2.85 8.73v0c0 1.033-0.1 2.117-0.3 3.25v0h-16.65c0.333 2.2 1.267 3.883 2.8 5.05 1.533 1.167 3.467 1.75 5.8 1.75v0c2.7 0 4.95-0.633 6.75-1.9zM107.6-25.35h4.9v4.35c1.5-3.133 4.133-4.7 7.9-4.7v0c2.5 0 4.483 0.767 5.95 2.3 1.467 1.533 2.2 3.617 2.2 6.25v0 17.15h-4.9v-16c0-1.767-0.44-3.117-1.32-4.05-0.887-0.933-2.063-1.4-3.53-1.4v0c-1.733 0-3.217 0.673-4.45 2.02-1.233 1.353-1.85 3.247-1.85 5.68v0 13.75h-4.9zM148.15-21.55h-6.65v13.95c0 2.433 1.167 3.65 3.5 3.65v0c1.367 0 2.517-0.367 3.45-1.1v0 4.4c-1.1 0.6-2.45 0.9-4.05 0.9v0c-5.233 0-7.85-2.65-7.85-7.95v0-13.85h-3.95v-3.8h3.95v-6.2h4.95v6.2h6.65z" fill="#374151" fill-rule="nonzero" stroke="none" stroke-width="1" stroke-linecap="butt" stroke-linejoin="miter" stroke-miterlimit="10" stroke-dasharray="" stroke-dashoffset="0" font-family="none" font-weight="none" font-size="none" text-anchor="none" style="mix-blend-mode: normal" data-fill-palette-color="primary" opacity="1"></path><path xmlns="http://www.w3.org/2000/svg" d="M2.6 21h17.65v3.5l-12.45 17.7h13.1v4.15h-18.75v-3.75l12.3-17.5h-11.85zM31.4 46.35h-4.9v-35h4.9zM46.9 21l-9.65 12.1 9.95 13.25h-5.85l-9.75-13.25 9.55-12.1zM59.7 32.1l-0.55 1.7h10.8l-0.55-1.7c-1.267-3.933-2.3-7.193-3.1-9.78-0.8-2.58-1.283-4.187-1.45-4.82v0l-0.25-0.95c-0.367 1.567-2 6.75-4.9 15.55zM79.5 46.35h-5.5l-2.65-8.25h-13.6l-2.7 8.25h-5.45l11.65-33.7h6.75zM100.25 34.8v-13.8h4.9v25.35h-4.9v-4.35c-1.333 3.1-3.967 4.65-7.9 4.65v0c-2.5 0-4.483-0.743-5.95-2.23-1.467-1.48-2.2-3.52-2.2-6.12v0-17.3h4.95v16.1c0 1.733 0.423 3.057 1.27 3.97 0.853 0.92 2.03 1.38 3.53 1.38v0c1.9 0 3.427-0.667 4.58-2 1.147-1.333 1.72-3.217 1.72-5.65zM115.7 33.8v0c0.067 2.567 0.85 4.673 2.35 6.32 1.5 1.653 3.6 2.48 6.3 2.48v0c2 0 3.867-0.55 5.6-1.65v0 4.4c-1.633 1-3.717 1.5-6.25 1.5v0c-3.967 0-7.133-1.25-9.5-3.75-2.367-2.5-3.55-5.617-3.55-9.35v0c0-3.633 1.19-6.743 3.57-9.33 2.387-2.58 5.613-3.87 9.68-3.87v0c2.2 0 4.217 0.467 6.05 1.4v0 4.5c-1.633-1.033-3.483-1.55-5.55-1.55v0c-2.633 0-4.743 0.833-6.33 2.5-1.58 1.667-2.37 3.8-2.37 6.4zM148.6 24.8h-6.65v13.95c0 2.433 1.167 3.65 3.5 3.65v0c1.367 0 2.517-0.367 3.45-1.1v0 4.4c-1.1 0.6-2.45 0.9-4.05 0.9v0c-5.233 0-7.85-2.65-7.85-7.95v0-13.85h-3.95v-3.8h3.95v-6.2h4.95v6.2h6.65zM159.45 46.35h-4.95v-25.35h4.95zM154.78 15.42c-0.587-0.58-0.88-1.303-0.88-2.17 0-0.867 0.293-1.6 0.88-2.2 0.58-0.6 1.303-0.9 2.17-0.9 0.867 0 1.6 0.3 2.2 0.9 0.6 0.6 0.9 1.333 0.9 2.2v0c0 0.833-0.3 1.55-0.9 2.15-0.6 0.6-1.333 0.9-2.2 0.9-0.867 0-1.59-0.293-2.17-0.88zM177.15 46.8v0c-3.733 0-6.667-1.217-8.8-3.65-2.133-2.433-3.2-5.517-3.2-9.25v0c0-3.8 1.1-6.96 3.3-9.48 2.2-2.513 5.1-3.77 8.7-3.77v0c3.867 0 6.85 1.223 8.95 3.67 2.1 2.453 3.15 5.58 3.15 9.38 0 3.8-1.073 6.933-3.22 9.4-2.153 2.467-5.113 3.7-8.88 3.7zM177.1 24.8v0c-2.167 0-3.85 0.857-5.05 2.57-1.2 1.72-1.8 3.847-1.8 6.38v0c0 2.5 0.617 4.607 1.85 6.32 1.233 1.72 2.917 2.58 5.05 2.58v0c2.267 0 3.99-0.833 5.17-2.5 1.187-1.667 1.78-3.783 1.78-6.35v0c0-2.633-0.567-4.793-1.7-6.48-1.133-1.68-2.9-2.52-5.3-2.52zM194.75 21h4.9v4.35c1.5-3.133 4.133-4.7 7.9-4.7v0c2.5 0 4.483 0.767 5.95 2.3 1.467 1.533 2.2 3.617 2.2 6.25v0 17.15h-4.9v-16c0-1.767-0.44-3.117-1.32-4.05-0.887-0.933-2.063-1.4-3.53-1.4v0c-1.733 0-3.217 0.673-4.45 2.02-1.233 1.353-1.85 3.247-1.85 5.68v0 13.75h-4.9z" fill="#374151" fill-rule="nonzero" stroke="none" stroke-width="1" stroke-linecap="butt" stroke-linejoin="miter" stroke-miterlimit="10" stroke-dasharray="" stroke-dashoffset="0" font-family="none" font-weight="none" font-size="none" text-anchor="none" style="mix-blend-mode: normal" data-fill-palette-color="primary" opacity="1"></path></g></svg></g></svg></g><g transform="matrix(1,0,0,1,0,190.64581593159446)"><svg viewBox="0 0 232.209792 13.643348531139834" height="13.643348531139834" width="232.209792"><g transform="matrix(1,0,0,1,0,0)"><svg width="232.209792" viewBox="0.3500000238418579 -37.5 850.9100341796875 50" height="13.643348531139834" data-palette-color="#374151"><path d="M22.9-13.75L22.9-9.45 7.9-9.45 7.9-13.75 22.9-13.75ZM25.45 0L14.7-30.35 16.1-30.35 5.35 0 0.35 0 12.9-35 17.9-35 30.45 0 25.45 0ZM44.55 0.5L44.55 0.5Q40.4 0.5 37.59-1.19 34.77-2.88 33.34-5.74 31.9-8.6 31.9-12.1L31.9-12.1Q31.9-15.75 33.28-18.68 34.67-21.6 37.55-23.3 40.42-25 44.9-25L44.9-25Q46.82-25 48.53-24.61 50.25-24.23 51.6-23.55L51.6-23.55 50.9-19.6Q49.52-20.25 47.98-20.63 46.45-21 44.8-21L44.8-21Q40.75-21 38.62-18.7 36.5-16.4 36.5-12.3L36.5-12.3Q36.5-8.3 38.52-5.88 40.55-3.45 44.7-3.45L44.7-3.45Q46.4-3.45 47.96-3.85 49.52-4.25 50.95-4.95L50.95-4.95 51.55-1.35Q50.55-0.65 48.62-0.08 46.7 0.5 44.55 0.5ZM66.9 0.5L66.9 0.5Q62.75 0.5 59.93-1.19 57.12-2.88 55.68-5.74 54.25-8.6 54.25-12.1L54.25-12.1Q54.25-15.75 55.63-18.68 57.02-21.6 59.9-23.3 62.77-25 67.25-25L67.25-25Q69.17-25 70.88-24.61 72.59-24.23 73.95-23.55L73.95-23.55 73.25-19.6Q71.87-20.25 70.33-20.63 68.8-21 67.15-21L67.15-21Q63.1-21 60.97-18.7 58.85-16.4 58.85-12.3L58.85-12.3Q58.85-8.3 60.87-5.88 62.9-3.45 67.05-3.45L67.05-3.45Q68.75-3.45 70.31-3.85 71.87-4.25 73.3-4.95L73.3-4.95 73.9-1.35Q72.9-0.65 70.97-0.08 69.05 0.5 66.9 0.5ZM88.69 0.5L88.69 0.5Q84.84 0.5 82.13-1.21 79.42-2.93 77.98-5.81 76.54-8.7 76.54-12.25L76.54-12.25Q76.54-15.8 77.98-18.69 79.42-21.58 82.13-23.29 84.84-25 88.69-25L88.69-25Q92.52-25 95.24-23.29 97.97-21.58 99.41-18.69 100.84-15.8 100.84-12.25L100.84-12.25Q100.84-8.7 99.41-5.81 97.97-2.93 95.24-1.21 92.52 0.5 88.69 0.5ZM88.69-3.5L88.69-3.5Q92.34-3.5 94.29-5.81 96.24-8.13 96.24-12.25L96.24-12.25Q96.24-16.38 94.29-18.69 92.34-21 88.69-21L88.69-21Q85.07-21 83.11-18.69 81.14-16.38 81.14-12.25L81.14-12.25Q81.14-8.13 83.11-5.81 85.07-3.5 88.69-3.5ZM114.29 0.5L114.29 0.5Q111.42 0.5 109.39-0.66 107.37-1.83 106.3-4.2 105.24-6.58 105.24-10.25L105.24-10.25 105.24-24.5 109.74-24.5 109.74-11.5Q109.74-7.6 111.08-5.55 112.42-3.5 115.44-3.5L115.44-3.5Q117.52-3.5 119.29-4.5 121.07-5.5 121.74-7.7L121.74-7.7 121.09-5.25 121.09-24.5 125.59-24.5 125.59 0 121.59 0 120.69-4.8 121.89-4Q120.67-1.73 118.9-0.61 117.14 0.5 114.29 0.5ZM136.19 0L131.69 0 131.69-24.5 135.19-24.5 136.09-19.8 134.34-20.55Q136.81-23.3 139.18-24.15 141.54-25 143.79-25L143.79-25Q149.16-25 151.48-21.9 153.79-18.8 153.79-13.5L153.79-13.5 153.79 0 149.29 0 149.29-13.5Q149.29-17.4 147.84-19.2 146.39-21 142.89-21L142.89-21Q140.41-21 138.35-19.91 136.29-18.82 135.64-16.45L135.64-16.45 136.19-19.2 136.19 0ZM171.74 0.5L167.69 0.5Q165.36 0.5 163.96-0.35 162.56-1.2 161.92-2.54 161.29-3.88 161.29-5.35L161.29-5.35 161.29-21 157.09-21 157.49-24.5 161.29-24.5 161.29-30.55 165.79-31 165.79-24.5 172.24-24.5 172.24-21 165.79-21 165.79-8.1Q165.79-5.75 166.06-4.7 166.34-3.65 167.42-3.38 168.51-3.1 170.94-3.1L170.94-3.1 172.09-3.1 171.74 0.5ZM207.18-13.75L207.18-9.45 192.18-9.45 192.18-13.75 207.18-13.75ZM209.73 0L198.98-30.35 200.38-30.35 189.63 0 184.63 0 197.18-35 202.18-35 214.73 0 209.73 0ZM230.18 0.5L230.18 0.5Q227.6 0.5 225.19-0.74 222.78-1.98 221.83-4.4L221.83-4.4 222.93-5.2 222.08 0 218.08 0 218.08-37.5 222.58-37.5 222.58-19.7 221.63-20.4Q222.88-22.43 225.2-23.71 227.53-25 230.18-25L230.18-25Q233.6-25 236.08-23.21 238.55-21.43 239.89-18.51 241.23-15.6 241.23-12.25L241.23-12.25Q241.23-8.68 239.75-5.79 238.28-2.9 235.78-1.2 233.28 0.5 230.18 0.5ZM229.63-3.5L229.63-3.5Q231.78-3.5 233.35-4.69 234.93-5.88 235.78-7.86 236.63-9.85 236.63-12.25L236.63-12.25Q236.63-14.75 235.78-16.73 234.93-18.7 233.35-19.85 231.78-21 229.63-21L229.63-21Q227.7-21 226.04-20.04 224.38-19.07 223.35-17.14 222.33-15.2 222.33-12.25L222.33-12.25Q222.33-9.18 223.35-7.25 224.38-5.33 226.04-4.41 227.7-3.5 229.63-3.5ZM252.83 0.5L252.83 0.5Q249.58 0.5 247.44-0.28 245.3-1.05 244.43-1.65L244.43-1.65 244.98-6Q245.78-5.3 247.8-4.4 249.83-3.5 252.63-3.5L252.63-3.5Q255-3.5 256.26-4.3 257.53-5.1 257.53-6.55L257.53-6.55Q257.53-7.83 256.71-8.61 255.9-9.4 254.76-9.86 253.63-10.33 252.63-10.6L252.63-10.6Q250.95-11.05 249.16-11.74 247.38-12.43 246.15-13.8 244.93-15.18 244.93-17.65L244.93-17.65Q244.93-19.53 245.83-21.21 246.73-22.9 248.75-23.95 250.78-25 254.13-25L254.13-25Q256.58-25 258.11-24.49 259.65-23.98 260.78-23.4L260.78-23.4 260.23-19.3Q259.15-20.2 257.73-20.83 256.3-21.45 254.23-21.45L254.23-21.45Q252.13-21.45 250.8-20.66 249.48-19.88 249.48-18.15L249.48-18.15Q249.48-16.43 250.89-15.7 252.3-14.98 255.18-14.1L255.18-14.1Q256.08-13.85 257.26-13.38 258.45-12.9 259.58-12.1 260.7-11.3 261.44-10.01 262.18-8.72 262.18-6.8L262.18-6.8Q262.18-5.18 261.4-3.49 260.63-1.8 258.6-0.65 256.58 0.5 252.83 0.5ZM279.07 0.5L275.02 0.5Q272.7 0.5 271.3-0.35 269.9-1.2 269.26-2.54 268.62-3.88 268.62-5.35L268.62-5.35 268.62-21 264.42-21 264.82-24.5 268.62-24.5 268.62-30.55 273.12-31 273.12-24.5 279.57-24.5 279.57-21 273.12-21 273.12-8.1Q273.12-5.75 273.4-4.7 273.67-3.65 274.76-3.38 275.85-3.1 278.27-3.1L278.27-3.1 279.42-3.1 279.07 0.5ZM288.22 0L283.42 0 283.42-24.5 287.12-24.5 287.67-20.45Q289.55-22.78 291.26-23.89 292.97-25 294.92-25L294.92-25Q295.55-25 296.07-24.85L296.07-24.85 295.62-19.9Q295.3-19.98 294.93-20.01 294.57-20.05 294.12-20.05L294.12-20.05Q292.17-20.05 290.53-19.19 288.9-18.32 288.22-17.3L288.22-17.3 288.22 0ZM304.57 0.5L304.57 0.5Q302.29 0.5 300.59-0.43 298.89-1.35 297.96-2.95 297.02-4.55 297.02-6.6L297.02-6.6Q297.02-8.68 297.93-10.16 298.84-11.65 300.38-12.64 301.92-13.63 303.82-14.21 305.72-14.8 307.76-15.06 309.79-15.33 311.67-15.35L311.67-15.35Q311.67-18.85 310.29-19.93 308.92-21 306.32-21L306.32-21Q304.94-21 303.38-20.58 301.82-20.15 299.87-18.8L299.87-18.8 299.22-22.45Q300.69-23.58 302.89-24.29 305.09-25 307.52-25L307.52-25Q310.62-25 312.52-23.91 314.42-22.83 315.29-20.25 316.17-17.68 316.17-13.25L316.17-13.25 316.17-8.25Q316.17-6.5 316.33-5.36 316.49-4.23 317.08-3.66 317.67-3.1 318.97-3.1L318.97-3.1 319.42-3.1 318.72 0.5 318.37 0.5Q316.19 0.5 315.01 0.08 313.82-0.35 313.19-1.15 312.57-1.95 312.07-3.1L312.07-3.1Q310.69-1.5 308.82-0.5 306.94 0.5 304.57 0.5ZM305.42-3.1L305.42-3.1Q307.22-3.1 308.91-4 310.59-4.9 311.67-6.4L311.67-6.4 311.67-12.25Q308.09-12.13 305.88-11.55 303.67-10.98 302.64-9.83 301.62-8.68 301.62-6.85L301.62-6.85Q301.62-4.88 302.68-3.99 303.74-3.1 305.42-3.1ZM334.12 0.5L334.12 0.5Q329.97 0.5 327.15-1.19 324.34-2.88 322.9-5.74 321.47-8.6 321.47-12.1L321.47-12.1Q321.47-15.75 322.85-18.68 324.24-21.6 327.12-23.3 329.99-25 334.47-25L334.47-25Q336.39-25 338.1-24.61 339.82-24.23 341.17-23.55L341.17-23.55 340.47-19.6Q339.09-20.25 337.55-20.63 336.02-21 334.37-21L334.37-21Q330.32-21 328.19-18.7 326.07-16.4 326.07-12.3L326.07-12.3Q326.07-8.3 328.09-5.88 330.12-3.45 334.27-3.45L334.27-3.45Q335.97-3.45 337.53-3.85 339.09-4.25 340.52-4.95L340.52-4.95 341.12-1.35Q340.12-0.65 338.19-0.08 336.27 0.5 334.12 0.5ZM358.06 0.5L354.01 0.5Q351.69 0.5 350.29-0.35 348.89-1.2 348.25-2.54 347.61-3.88 347.61-5.35L347.61-5.35 347.61-21 343.41-21 343.81-24.5 347.61-24.5 347.61-30.55 352.11-31 352.11-24.5 358.56-24.5 358.56-21 352.11-21 352.11-8.1Q352.11-5.75 352.39-4.7 352.66-3.65 353.75-3.38 354.84-3.1 357.26-3.1L357.26-3.1 358.41-3.1 358.06 0.5ZM366.91 0L362.41 0 362.41-24.5 366.91-24.5 366.91 0ZM366.91-30L362.41-30 362.41-35 366.91-35 366.91-30ZM383.71 0.5L383.71 0.5Q379.86 0.5 377.15-1.21 374.43-2.93 373-5.81 371.56-8.7 371.56-12.25L371.56-12.25Q371.56-15.8 373-18.69 374.43-21.58 377.15-23.29 379.86-25 383.71-25L383.71-25Q387.53-25 390.26-23.29 392.98-21.58 394.42-18.69 395.86-15.8 395.86-12.25L395.86-12.25Q395.86-8.7 394.42-5.81 392.98-2.93 390.26-1.21 387.53 0.5 383.71 0.5ZM383.71-3.5L383.71-3.5Q387.36-3.5 389.31-5.81 391.26-8.13 391.26-12.25L391.26-12.25Q391.26-16.38 389.31-18.69 387.36-21 383.71-21L383.71-21Q380.08-21 378.12-18.69 376.16-16.38 376.16-12.25L376.16-12.25Q376.16-8.13 378.12-5.81 380.08-3.5 383.71-3.5ZM405.01 0L400.51 0 400.51-24.5 404.01-24.5 404.91-19.8 403.16-20.55Q405.63-23.3 407.99-24.15 410.36-25 412.61-25L412.61-25Q417.98-25 420.29-21.9 422.61-18.8 422.61-13.5L422.61-13.5 422.61 0 418.11 0 418.11-13.5Q418.11-17.4 416.66-19.2 415.21-21 411.71-21L411.71-21Q409.23-21 407.17-19.91 405.11-18.82 404.46-16.45L404.46-16.45 405.01-19.2 405.01 0ZM445.4 0.5L445.4 0.5Q443.13 0.5 441.43-0.43 439.73-1.35 438.79-2.95 437.85-4.55 437.85-6.6L437.85-6.6Q437.85-8.68 438.76-10.16 439.68-11.65 441.21-12.64 442.75-13.63 444.65-14.21 446.55-14.8 448.59-15.06 450.63-15.33 452.5-15.35L452.5-15.35Q452.5-18.85 451.13-19.93 449.75-21 447.15-21L447.15-21Q445.78-21 444.21-20.58 442.65-20.15 440.7-18.8L440.7-18.8 440.05-22.45Q441.53-23.58 443.73-24.29 445.93-25 448.35-25L448.35-25Q451.45-25 453.35-23.91 455.25-22.83 456.13-20.25 457-17.68 457-13.25L457-13.25 457-8.25Q457-6.5 457.16-5.36 457.33-4.23 457.91-3.66 458.5-3.1 459.8-3.1L459.8-3.1 460.25-3.1 459.55 0.5 459.2 0.5Q457.03 0.5 455.84 0.08 454.65-0.35 454.03-1.15 453.4-1.95 452.9-3.1L452.9-3.1Q451.53-1.5 449.65-0.5 447.78 0.5 445.4 0.5ZM446.25-3.1L446.25-3.1Q448.05-3.1 449.74-4 451.43-4.9 452.5-6.4L452.5-6.4 452.5-12.25Q448.93-12.13 446.71-11.55 444.5-10.98 443.48-9.83 442.45-8.68 442.45-6.85L442.45-6.85Q442.45-4.88 443.51-3.99 444.58-3.1 446.25-3.1ZM468.2 0L463.7 0 463.7-24.5 467.2-24.5 468.1-19.8 466.35-20.55Q468.82-23.3 471.19-24.15 473.55-25 475.8-25L475.8-25Q481.17-25 483.49-21.9 485.8-18.8 485.8-13.5L485.8-13.5 485.8 0 481.3 0 481.3-13.5Q481.3-17.4 479.85-19.2 478.4-21 474.9-21L474.9-21Q472.42-21 470.36-19.91 468.3-18.82 467.65-16.45L467.65-16.45 468.2-19.2 468.2 0ZM501.35 0.5L501.35 0.5Q498.22 0.5 495.7-1.2 493.17-2.9 491.68-5.78 490.2-8.65 490.2-12.2L490.2-12.2Q490.2-15.58 491.56-18.5 492.92-21.43 495.42-23.21 497.92-25 501.35-25L501.35-25Q503.8-25 506.08-23.94 508.37-22.88 509.8-20.4L509.8-20.4 508.85-19.75 508.85-37.5 513.35-37.5 513.35 0 509.35 0 508.5-5.2 509.65-4.4Q508.57-1.98 506.27-0.74 503.97 0.5 501.35 0.5ZM502.15-3.5L502.15-3.5Q503.85-3.5 505.51-4.38 507.17-5.25 508.26-7.16 509.35-9.08 509.35-12.2L509.35-12.2Q509.35-15.1 508.26-17.06 507.17-19.03 505.51-20.01 503.85-21 502.15-21L502.15-21Q499.85-21 498.2-19.85 496.55-18.7 495.67-16.71 494.8-14.73 494.8-12.2L494.8-12.2Q494.8-9.83 495.67-7.85 496.55-5.88 498.2-4.69 499.85-3.5 502.15-3.5ZM534.99 0L529.99 0 534.69-35 538.74-35 547.94-17.65 557.04-35 561.14-35 565.79 0 560.79 0 557.24-28.55 558.49-28.35 547.99-8.3 537.29-28.35 538.54-28.55 534.99 0ZM579.44 0.5L579.44 0.5Q576.56 0.5 574.54-0.66 572.51-1.83 571.45-4.2 570.39-6.58 570.39-10.25L570.39-10.25 570.39-24.5 574.89-24.5 574.89-11.5Q574.89-7.6 576.22-5.55 577.56-3.5 580.59-3.5L580.59-3.5Q582.66-3.5 584.44-4.5 586.21-5.5 586.89-7.7L586.89-7.7 586.24-5.25 586.24-24.5 590.74-24.5 590.74 0 586.74 0 585.84-4.8 587.04-4Q585.81-1.73 584.05-0.61 582.29 0.5 579.44 0.5ZM604.58 0.5L603.13 0.5Q600.76 0.5 599.37-0.36 597.98-1.23 597.38-2.58 596.78-3.93 596.78-5.4L596.78-5.4 596.78-37.5 601.28-37.5 601.28-8Q601.28-5.9 601.56-4.85 601.83-3.8 602.67-3.45 603.51-3.1 605.23-3.1L605.23-3.1 604.58 0.5ZM620.88 0.5L616.83 0.5Q614.51 0.5 613.11-0.35 611.71-1.2 611.07-2.54 610.43-3.88 610.43-5.35L610.43-5.35 610.43-21 606.23-21 606.63-24.5 610.43-24.5 610.43-30.55 614.93-31 614.93-24.5 621.38-24.5 621.38-21 614.93-21 614.93-8.1Q614.93-5.75 615.21-4.7 615.48-3.65 616.57-3.38 617.66-3.1 620.08-3.1L620.08-3.1 621.23-3.1 620.88 0.5ZM629.73 0L625.23 0 625.23-24.5 629.73-24.5 629.73 0ZM629.73-30L625.23-30 625.23-35 629.73-35 629.73-30ZM642.78 0.5L642.78 0.5Q639.53 0.5 637.39-0.28 635.25-1.05 634.38-1.65L634.38-1.65 634.93-6Q635.73-5.3 637.75-4.4 639.78-3.5 642.58-3.5L642.58-3.5Q644.95-3.5 646.21-4.3 647.48-5.1 647.48-6.55L647.48-6.55Q647.48-7.83 646.66-8.61 645.85-9.4 644.71-9.86 643.58-10.33 642.58-10.6L642.58-10.6Q640.9-11.05 639.11-11.74 637.33-12.43 636.1-13.8 634.88-15.18 634.88-17.65L634.88-17.65Q634.88-19.53 635.78-21.21 636.68-22.9 638.7-23.95 640.73-25 644.08-25L644.08-25Q646.53-25 648.06-24.49 649.6-23.98 650.73-23.4L650.73-23.4 650.18-19.3Q649.1-20.2 647.68-20.83 646.25-21.45 644.18-21.45L644.18-21.45Q642.08-21.45 640.75-20.66 639.43-19.88 639.43-18.15L639.43-18.15Q639.43-16.43 640.84-15.7 642.25-14.98 645.13-14.1L645.13-14.1Q646.03-13.85 647.21-13.38 648.4-12.9 649.53-12.1 650.65-11.3 651.39-10.01 652.13-8.72 652.13-6.8L652.13-6.8Q652.13-5.18 651.35-3.49 650.58-1.8 648.55-0.65 646.53 0.5 642.78 0.5ZM661.02 0L656.52 0 656.52-24.5 661.02-24.5 661.02 0ZM661.02-30L656.52-30 656.52-35 661.02-35 661.02-30ZM677.02 12.5L677.02 12.5Q673.67 12.5 671.03 11.68 668.4 10.85 666.88 9.22 665.37 7.6 665.37 5.2L665.37 5.2Q665.37 3.2 666.51 1.76 667.65 0.33 669.62-0.55L669.62-0.55Q668.45-1.13 667.83-1.91 667.22-2.7 667.22-3.65L667.22-3.65Q667.22-4.78 667.91-5.69 668.6-6.6 670.12-7.2L670.12-7.2Q668.07-8.47 666.97-10.64 665.87-12.8 665.87-15.45L665.87-15.45Q665.87-18.13 667.07-20.29 668.27-22.45 670.53-23.73 672.8-25 675.97-25L675.97-25Q677.67-25 679.18-24.5 680.7-24 681.97-23.1L681.97-23.1Q683.1-23.75 684.63-24.18 686.17-24.6 688.07-24.6L688.07-24.6Q688.2-24.6 688.28-24.6 688.37-24.6 688.47-24.6L688.47-24.6 687.92-21.6Q687.62-21.6 687.35-21.6 687.07-21.6 686.77-21.6L686.77-21.6Q686.52-21.6 685.62-21.53 684.72-21.45 683.97-21.25L683.97-21.25Q685-20.05 685.56-18.56 686.12-17.07 686.12-15.45L686.12-15.45Q686.12-12.65 684.91-10.44 683.7-8.22 681.42-6.94 679.15-5.65 675.97-5.65L675.97-5.65Q675.07-5.65 674.25-5.76 673.42-5.88 672.67-6.1L672.67-6.1Q671.52-5.73 671.52-4.8L671.52-4.8Q671.52-4.25 672.17-3.84 672.82-3.43 674.27-3.2L674.27-3.2 680.82-2.15Q684.8-1.53 686.96 0.15 689.12 1.83 689.12 4.9L689.12 4.9Q689.12 7.45 687.63 9.14 686.15 10.83 683.42 11.66 680.7 12.5 677.02 12.5ZM677.42 8.5L677.42 8.5Q680.87 8.5 682.72 7.61 684.57 6.73 684.57 5L684.57 5Q684.57 3.65 683.41 2.88 682.25 2.1 680.07 1.7L680.07 1.7 673.1 0.53Q671.72 1.13 670.7 2.14 669.67 3.15 669.67 4.5L669.67 4.5Q669.67 6.6 671.78 7.55 673.9 8.5 677.42 8.5ZM675.97-9.25L675.97-9.25Q678.82-9.25 680.32-10.96 681.82-12.68 681.82-15.4L681.82-15.4Q681.82-18.03 680.32-19.71 678.82-21.4 675.97-21.4L675.97-21.4Q673.12-21.4 671.65-19.71 670.17-18.03 670.17-15.4L670.17-15.4Q670.17-12.68 671.65-10.96 673.12-9.25 675.97-9.25ZM696.52 0L692.02 0 692.02-24.5 695.52-24.5 696.42-19.8 694.67-20.55Q697.14-23.3 699.51-24.15 701.87-25 704.12-25L704.12-25Q709.49-25 711.81-21.9 714.12-18.8 714.12-13.5L714.12-13.5 714.12 0 709.62 0 709.62-13.5Q709.62-17.4 708.17-19.2 706.72-21 703.22-21L703.22-21Q700.74-21 698.68-19.91 696.62-18.82 695.97-16.45L695.97-16.45 696.52-19.2 696.52 0ZM740.91 0.5L740.91 0.5Q737.79 0.5 735.26-1.2 732.74-2.9 731.25-5.78 729.76-8.65 729.76-12.2L729.76-12.2Q729.76-15.58 731.13-18.5 732.49-21.43 734.99-23.21 737.49-25 740.91-25L740.91-25Q743.36-25 745.65-23.94 747.94-22.88 749.36-20.4L749.36-20.4 748.41-19.75 748.41-37.5 752.91-37.5 752.91 0 748.91 0 748.06-5.2 749.21-4.4Q748.14-1.98 745.84-0.74 743.54 0.5 740.91 0.5ZM741.71-3.5L741.71-3.5Q743.41-3.5 745.08-4.38 746.74-5.25 747.83-7.16 748.91-9.08 748.91-12.2L748.91-12.2Q748.91-15.1 747.83-17.06 746.74-19.03 745.08-20.01 743.41-21 741.71-21L741.71-21Q739.41-21 737.76-19.85 736.11-18.7 735.24-16.71 734.36-14.73 734.36-12.2L734.36-12.2Q734.36-9.83 735.24-7.85 736.11-5.88 737.76-4.69 739.41-3.5 741.71-3.5ZM770.71 0.5L770.71 0.5Q766.39 0.5 763.44-1.28 760.49-3.05 758.97-5.99 757.46-8.93 757.46-12.45L757.46-12.45Q757.46-15.88 758.87-18.73 760.29-21.58 762.97-23.29 765.66-25 769.46-25L769.46-25Q772.51-25 774.9-23.79 777.29-22.58 778.65-20.26 780.01-17.95 780.01-14.65L780.01-14.65Q780.01-14.13 779.97-13.51 779.94-12.9 779.81-12.25L779.81-12.25 762.06-12.25Q762.39-8.85 763.69-6.95 764.99-5.05 766.96-4.28 768.94-3.5 771.26-3.5L771.26-3.5Q772.96-3.5 774.81-3.85 776.66-4.2 778.31-4.95L778.31-4.95 778.91-1.4Q777.49-0.78 775.44-0.14 773.39 0.5 770.71 0.5ZM762.46-15.35L762.46-15.35 775.36-15.35Q775.36-17.07 774.71-18.35 774.06-19.63 772.74-20.31 771.41-21 769.36-21L769.36-21Q766.36-21 764.75-19.51 763.14-18.03 762.46-15.35ZM789.06 0L784.56 0 784.56-24.5 788.06-24.5 788.96-19.8 787.26-20.6Q789.56-23.08 791.73-24.04 793.91-25 796.31-25L796.31-25Q798.11-25 799.77-24.41 801.43-23.83 802.77-22.36 804.11-20.9 804.91-18.3L804.91-18.3 803.66-18.85Q804.76-21.7 807.03-23.35 809.31-25 813.16-25L813.16-25Q816.23-25 818.33-23.86 820.43-22.73 821.5-20.39 822.56-18.05 822.56-14.45L822.56-14.45 822.56 0 818.06 0 818.06-14.4Q818.06-17.85 816.71-19.43 815.36-21 812.31-21L812.31-21Q810.16-21 808.86-20.34 807.56-19.68 806.9-18.63 806.23-17.57 806.02-16.4 805.81-15.23 805.81-14.2L805.81-14.2 805.81 0 801.31 0 801.31-13.5Q801.31-16.5 800.58-18.13 799.86-19.75 798.56-20.38 797.26-21 795.56-21L795.56-21Q793.08-21 791.13-19.91 789.18-18.82 788.51-16.45L788.51-16.45 789.06-18.9 789.06 0ZM839.11 0.5L839.11 0.5Q835.26 0.5 832.54-1.21 829.83-2.93 828.39-5.81 826.96-8.7 826.96-12.25L826.96-12.25Q826.96-15.8 828.39-18.69 829.83-21.58 832.54-23.29 835.26-25 839.11-25L839.11-25Q842.93-25 845.66-23.29 848.38-21.58 849.82-18.69 851.26-15.8 851.26-12.25L851.26-12.25Q851.26-8.7 849.82-5.81 848.38-2.93 845.66-1.21 842.93 0.5 839.11 0.5ZM839.11-3.5L839.11-3.5Q842.76-3.5 844.71-5.81 846.66-8.13 846.66-12.25L846.66-12.25Q846.66-16.38 844.71-18.69 842.76-21 839.11-21L839.11-21Q835.48-21 833.52-18.69 831.56-16.38 831.56-12.25L831.56-12.25Q831.56-8.13 833.52-5.81 835.48-3.5 839.11-3.5Z" opacity="1" transform="matrix(1,0,0,1,0,0)" fill="#374151" class="slogan-text-1" data-fill-palette-color="secondary" id="text-1"></path></svg></g></svg></g></svg></g></svg></g><g transform="matrix(1,0,0,1,0,0.510722911156833)"><svg viewBox="0 0 214.42913756552335 204.28916446273425" height="204.28916446273425" width="214.42913756552335"><g><svg xmlns="http://www.w3.org/2000/svg" xmlns:xlink="http://www.w3.org/1999/xlink" version="1.1" x="0" y="0" viewBox="3.200000047683716 5.350000381469727 93.57499694824219 89.1500015258789" enable-background="new 0 0 100 100" xml:space="preserve" height="204.28916446273425" width="214.42913756552335" class="icon-icon-0" data-fill-palette-color="accent" id="icon-0"><path d="M3.2 78.7c0.6-0.4 1.4-0.7 2.2-0.9 8.5-2.1 15.9-5.7 15.9-5.7 0.7-1.2 1.1-2.8 1.2-4-2.2-2.9-3.2-6.3-3.6-9.2-0.8-0.1-1.9-1.2-3-5.3-1.6-5.6 0.1-6.4 1.5-6.3-1-2.9-1.1-5.8-0.4-8.5 0.7-3.1 2.4-5.6 4.3-7.6 1.2-1.3 2.5-2.4 4-3.3 1.2-0.8 2.4-1.5 3.8-2l0 0 0 0c1.1-0.4 2.3-0.6 3.5-0.7 3.8-0.3 6.7 0.6 8.8 1.9 3.1 1.7 4.3 4 4.3 4s7.8 0.6 4.4 17.1h0c1 0.4 1.8 1.8 0.6 6.2-1.5 5.3-2.9 5.6-3.7 5.1-0.5 2.7-1.5 5.8-3.4 8.4 0.2 1.3 0.6 3.3 1.5 4.5 0 0 7.1 3.2 15.7 5.3 0.8 0.2 1.6 0.5 2.2 0.9-6.5 9.6-17.4 15.9-29.9 15.9S9.7 88.3 3.2 78.7zM91 39.4c-6.6 6.6-16.5 7.6-24.2 3.1l0 0c-3 2.3-6.2 2.7-8.5 2.3-0.7-0.1-0.9-1.1-0.2-1.5 2.1-1 3.3-3 4.1-4.6l-0.2-0.2c-6.9-7.8-6.7-19.8 0.8-27.3 7.8-7.8 20.4-7.8 28.2 0C98.7 19 98.7 31.6 91 39.4zM83.4 33.8c-0.2-0.6-0.5-1.2-0.8-1.8-0.2-0.5-0.5-0.7-1.1-0.5-0.7 0.2-1.4 0.4-2.1 0.5-1.4 0.3-2.8 0.3-4.1-0.1-1.7-0.5-2.6-1.8-3.2-3.4h4.7c0.4 0 0.7-0.3 0.7-0.7v-1.5c0-0.4-0.3-0.7-0.7-0.7h-5.1c0-0.4 0-0.8 0-1.2h5.1c0.4 0 0.7-0.3 0.7-0.7v-1.5c0-0.4-0.3-0.7-0.7-0.7h-4.5c0 0 0 0 0 0 0.5-1.2 1.3-2.2 2.6-2.7 1.5-0.6 3-0.6 4.5-0.3 0.7 0.1 1.4 0.4 2.2 0.5 0.5 0.1 0.8 0 1.1-0.5 0.3-0.6 0.5-1.2 0.7-1.7 0.2-0.5 0.1-0.9-0.4-1.2-0.1-0.1-0.3-0.1-0.4-0.2-2.1-0.8-4.4-1.2-6.6-0.8-1.6 0.3-3.1 0.8-4.4 1.8-1.6 1.3-2.7 2.9-3.3 4.9l-0.1 0.2h-2.3c-0.4 0-0.7 0.3-0.7 0.7v1.5c0 0.4 0.3 0.7 0.7 0.7h1.8c0 0.4 0 0.8 0 1.2h-1.8c-0.4 0-0.7 0.3-0.7 0.7v1.5c0 0.4 0.3 0.7 0.7 0.7H68c0.2 0.5 0.3 1.1 0.5 1.6 1.1 2.7 2.9 4.5 5.7 5.4 2.3 0.7 4.6 0.7 6.9 0.1 0.6-0.2 1.2-0.4 1.8-0.6C83.5 34.8 83.6 34.3 83.4 33.8z" fill="#374151" data-fill-palette-color="accent"></path></svg></g></svg></g></svg></g><defs></defs></svg><rect width="395.52" height="123.95762354123951" fill="none" stroke="none" visibility="hidden"></rect></g></svg></g></svg>